<svg xmlns="http://www.w3.org/2000/svg" viewBox="0 0 200 200" fill="none">
  
  
  <circle cx="44" cy="82" r="22" fill="#8B5A3C"></circle>
  <circle cx="156" cy="82" r="22" fill="#8B5A3C"></circle>
  <circle cx="44" cy="82" r="12" fill="#E5C4A8"></circle>
  <circle cx="156" cy="82" r="12" fill="#E5C4A8"></circle>
  
  <ellipse cx="100" cy="100" rx="70" ry="66" fill="#8B5A3C"></ellipse>
  
  <ellipse cx="100" cy="114" rx="50" ry="48" fill="#E5C4A8"></ellipse>
  
  <path d="M 50 78 Q 100 52 150 78 Q 135 92 100 92 Q 65 92 50 78 Z" fill="#6E4530"></path>
  
  <circle cx="80" cy="106" r="6" fill="#1F1B16"></circle>
  <circle cx="120" cy="106" r="6" fill="#1F1B16"></circle>
  <circle cx="82" cy="104" r="1.8" fill="#FFFDF8"></circle>
  <circle cx="122" cy="104" r="1.8" fill="#FFFDF8"></circle>
  
  <ellipse cx="93" cy="130" rx="2" ry="1.5" fill="#6E4530"></ellipse>
  <ellipse cx="107" cy="130" rx="2" ry="1.5" fill="#6E4530"></ellipse>
  
  <path d="M 84 142 Q 100 152 116 142" stroke="#1F1B16" stroke-width="2.5" stroke-linecap="round" fill="none"></path>
  
  <circle cx="70" cy="128" r="5" fill="#F0936B" opacity="0.5"></circle>
  <circle cx="130" cy="128" r="5" fill="#F0936B" opacity="0.5"></circle>
</svg>