<svg xmlns="http://www.w3.org/2000/svg" width="1024" height="1024" viewBox="0 0 1024 1024">
<rect width="1024" height="1024" rx="220" fill="#1B1C1F"/>
<g transform="translate(154,160) scale(2.38)">
    <g stroke="#EFE7DA" stroke-width="12" stroke-linecap="round" stroke-linejoin="round">
      <path d="M104 150 C84 132 72 109 72 84 C72 52 94 30 124 30"/>
      <path d="M196 150 C216 132 228 109 228 84 C228 52 206 30 176 30"/>
      <path d="M78 86 C62 86 50 97 50 112 C50 127 62 138 78 138"/>
      <path d="M222 86 C238 86 250 97 250 112 C250 127 238 138 222 138"/>
      <path d="M110 150 C114 179 127 202 150 214 C173 202 186 179 190 150"/>
      <path d="M112 40 C122 18 148 12 164 20 C171 11 183 10 194 14 C186 26 177 37 166 42"/>
    </g>
    <path d="M100 96 C100 80 114 68 132 68 H168 C186 68 200 80 200 96 C200 112 186 124 168 124 H132 C114 124 100 112 100 96 Z" stroke="#EFE7DA" stroke-width="10" stroke-linejoin="round"/>
    
        <path d="M112 99 C122 88 135 87 144 99 C135 107 122 107 112 99 Z" fill="#EFE7DA"/>
        <path d="M156 99 C165 87 178 88 188 99 C178 107 165 107 156 99 Z" fill="#EFE7DA"/>
        
    <path d="M144 128 C148 133 152 133 156 128" stroke="#EFE7DA" stroke-width="7" stroke-linecap="round"/>
    <path d="M150 126 L144 136 H156 Z" fill="#EFE7DA"/>
    </g>
</svg>